<svg width="34" height="34" viewBox="0 0 34 34" fill="none" xmlns="http://www.w3.org/2000/svg">
  <path 
    fill-rule="evenodd" 
    clip-rule="evenodd" 
    d="M17 34C26.3888 34 34 26.3888 34 17C34 7.61116 26.3888 0 17 0C7.61114 0 0 7.61116 0 17C0 26.3888 7.61114 34 17 34ZM20.5 8C21.3284 8 21.8 9 21.2 9.6L13 18H18C18.5523 18 19 18.4477 19 19C19 19.5523 18.5523 20 18 20H11C10.4477 20 10 19.5523 10 19C10 18.4477 10.4477 18 11 18H12.5L14.8 14.4L12.2 26C11.6 26.6 12.6716 27.2 13.5 26.2L20.5 18C21.3284 17 20.8568 16 20.0284 16H16L20.5 8Z" 
    fill="#DA627D"
  />
</svg>